# Blender 4.1.1
# www.blender.org
o Sylveon.003
v -5.073354 -4.136827 43.612274
v -4.841580 -6.352973 43.969456
v -4.314676 -6.116293 44.956997
v -5.335038 -6.393007 43.272640
v -4.571774 -3.868062 44.621449
v -5.535654 -4.340862 42.786121
v -4.933342 -2.227806 43.170177
v -5.370580 -2.442424 42.277191
v -4.008011 -7.375865 45.054909
v -5.172287 -7.775685 43.705811
v -4.589191 -7.651227 44.198601
v -4.423073 -1.965863 44.218830
v -3.740144 -5.682887 46.020687
v -3.992722 -3.579681 45.671871
v -5.821445 -2.719261 41.401516
v -5.868994 -6.418918 42.582165
v -6.009328 -4.561422 41.931507
v -5.716791 -7.922585 43.353115
v -4.252906 -0.444188 42.516365
v -4.711789 -0.672523 41.723278
v -3.097361 -4.999663 47.109165
v -3.840266 -1.705613 45.248322
v -3.284271 -3.237420 46.810120
v -6.190329 -3.056726 40.496803
v -5.308211 -0.905330 40.805721
v -5.685337 -1.290130 39.842342
v -6.207540 -7.990616 42.209961
v -6.416388 -6.567555 41.614223
v -3.655701 -0.164793 43.570007
v -2.708155 -2.930331 47.661636
v -6.422256 -4.874448 41.100178
v -3.060061 0.082075 44.572407
v -3.095355 -1.423777 46.332817
v -2.374640 0.299302 45.681995
v -2.491188 -1.181523 47.186474
v -1.029748 -12.434651 43.556553
v -0.503661 -12.216179 44.565384
v -2.114077 -10.632111 44.926670
v 0.557661 -13.495813 43.094505
v -2.630386 -10.890532 43.938984
v 0.114481 -13.698236 42.201603
v -2.969676 -11.246932 43.240044
v -1.479683 -12.664059 42.730225
v -1.413082 -10.458216 45.988617
v 1.083940 -13.266722 44.142941
v 0.085832 -11.949225 45.615665
v -3.956038 -10.271529 43.689049
v -2.916578 -9.615581 45.039871
v -3.496101 -9.894341 44.183537
v -0.386006 -13.873246 41.326611
v 1.911412 -14.263896 41.632008
v 1.355685 -14.580215 40.713886
v 1.653481 -12.979252 45.172615
v 2.378204 -14.051794 42.424988
v 2.971825 -13.765043 43.478676
v -4.409129 -10.606020 43.335094
v -3.322765 -11.643993 42.547073
v -0.473151 -10.384764 47.072998
v 0.815145 -14.629677 39.752762
v -1.949794 -12.891935 41.875561
v -0.883876 -13.946019 40.423676
v 3.538592 -13.458923 44.481472
v 0.797963 -11.614511 46.753860
v 2.340203 -12.578008 46.257912
v -4.771160 -10.938192 42.190163
v -2.455170 -13.015248 41.045506
v 4.137905 -13.065000 45.592255
v 1.399328 -11.359236 47.605038
v -3.782258 -11.973013 41.577923
v 2.907805 -12.260721 47.112072
v -4.615905 -6.381111 37.010555
v -5.564492 -6.525643 38.376724
v -6.356964 -6.605032 40.245174
v -4.309757 -7.475239 37.016380
v -3.859674 -8.635505 37.026569
v -3.782397 -11.888263 40.209694
v -3.241421 -11.292780 38.344707
v -2.550287 -10.619934 36.982090
v -3.223298 -9.704748 37.001404
v -5.682543 -9.559900 42.401253
v -4.106113 -10.357876 38.547665
v -4.720320 -10.908363 40.363503
v -4.940928 -9.173226 38.637363
v -5.647080 -9.529549 40.455154
v -5.359961 -7.784876 38.564945
v -6.162383 -7.949128 40.383377
vn -0.8878 0.0845 0.4524
vn -0.8286 -0.0143 0.5596
vn -0.8640 -0.0986 0.4937
vn -0.7940 0.0999 0.5996
vn -0.8916 0.0655 0.4480
vn -0.8763 0.1302 0.4638
vn -0.8834 0.2965 0.3630
vn -0.8792 0.2916 0.3767
vn -0.8364 -0.1247 0.5338
vn -0.6475 0.1064 0.7546
vn -0.7408 -0.0255 0.6712
vn -0.8694 0.3136 0.3819
vn -0.8626 -0.0498 0.5034
vn -0.8702 0.0782 0.4865
vn -0.9060 0.2719 0.3243
vn -0.8474 0.1126 0.5189
vn -0.8943 0.1629 0.4167
vn -0.7715 0.1652 0.6144
vn -0.8261 0.4511 0.3377
vn -0.8203 0.4326 0.3741
vn -0.8486 -0.0072 0.5291
vn -0.8363 0.3389 0.4310
vn -0.8468 0.1036 0.5217
vn -0.9191 0.2707 0.2862
vn -0.8715 0.3750 0.3159
vn -0.9128 0.3376 0.2297
vn -0.9800 -0.1168 0.1613
vn -0.9592 -0.0037 0.2828
vn -0.8097 0.4746 0.3451
vn -0.8390 0.1471 0.5238
vn -0.9065 0.1750 0.3844
vn -0.7902 0.4828 0.3774
vn -0.8113 0.3579 0.4623
vn -0.7834 0.4778 0.3975
vn -0.8086 0.3499 0.4730
vn -0.4781 -0.7562 0.4467
vn -0.4955 -0.7474 0.4425
vn -0.6075 -0.6251 0.4902
vn -0.3089 -0.8823 0.3550
vn -0.5189 -0.6499 0.5553
vn -0.3101 -0.8762 0.3689
vn -0.4075 -0.6934 0.5943
vn -0.4350 -0.7754 0.4577
vn -0.5681 -0.6542 0.4993
vn -0.2867 -0.8820 0.3739
vn -0.4721 -0.7387 0.4810
vn -0.3112 -0.5837 0.7500
vn -0.6107 -0.5877 0.5307
vn -0.4731 -0.5750 0.6676
vn -0.3424 -0.8846 0.3165
vn -0.1628 -0.9167 0.3650
vn -0.2400 -0.9209 0.3072
vn -0.2462 -0.8721 0.4229
vn -0.1520 -0.9322 0.3284
vn -0.1234 -0.9339 0.3357
vn -0.3420 -0.7161 0.6085
vn -0.4307 -0.7424 0.5132
vn -0.5258 -0.6696 0.5246
vn -0.2954 -0.9294 0.2212
vn -0.4206 -0.8092 0.4102
vn -0.3517 -0.8937 0.2784
vn -0.1047 -0.9239 0.3680
vn -0.4375 -0.7364 0.5161
vn -0.2156 -0.8645 0.4541
vn -0.6950 -0.7016 0.1574
vn -0.4187 -0.8259 0.3776
vn -0.1043 -0.9157 0.3881
vn -0.3984 -0.7571 0.5177
vn -0.5925 -0.7562 0.2777
vn -0.2202 -0.8576 0.4649
vn -0.7087 -0.5038 -0.4939
vn -0.7706 -0.5981 -0.2203
vn -0.7806 -0.3771 -0.4984
vn -0.7245 -0.6473 -0.2367
vn -0.7296 -0.3516 -0.5865
vn -0.6902 -0.5286 -0.4941
vn -0.6860 -0.4437 -0.5767
vn -0.8798 -0.4273 -0.2082
vn -0.8361 -0.2424 -0.4921
vn -0.7752 -0.2606 -0.5754
vn -0.6657 -0.4775 -0.5734
vn -0.8988 -0.4378 -0.0232
vn -0.9470 -0.2360 -0.2179
vn -0.8443 -0.2126 -0.4920
vn -0.7893 -0.2239 -0.5717
vn -0.9575 -0.1692 -0.2335
vt 0.130378 2.846690
vt 0.195929 2.847240
vt 0.194768 2.880440
vt 0.192566 2.822530
vt 0.128744 2.880090
vt 0.131133 2.818670
vt 0.073668 2.847740
vt 0.074141 2.818440
vt 0.232235 2.880910
vt 0.234375 2.828130
vt 0.234674 2.850240
vt 0.072858 2.882050
vt 0.188557 2.917020
vt 0.126746 2.915520
vt 0.076524 2.789090
vt 0.188679 2.797390
vt 0.132037 2.789740
vt 0.236243 2.809180
vt 0.015347 2.849720
vt 0.017381 2.822490
vt 0.175493 2.956460
vt 0.071584 2.916710
vt 0.123633 2.955200
vt 0.079877 2.759480
vt 0.019469 2.790260
vt 0.023470 2.758640
vt 0.230190 2.773930
vt 0.186411 2.765030
vt 0.013449 2.885690
vt 0.119820 2.985920
vt 0.135545 2.761700
vt 0.012155 2.920290
vt 0.069343 2.955290
vt 0.012222 2.958660
vt 0.066979 2.986210
vt 0.369620 2.846690
vt 0.371260 2.880090
vt 0.305230 2.880440
vt 0.426330 2.847740
vt 0.304070 2.847240
vt 0.425860 2.818440
vt 0.307430 2.822530
vt 0.368870 2.818670
vt 0.311440 2.917020
vt 0.427140 2.882050
vt 0.373250 2.915520
vt 0.265630 2.828130
vt 0.267770 2.880910
vt 0.265330 2.850240
vt 0.423480 2.789090
vt 0.482620 2.822490
vt 0.480530 2.790260
vt 0.428420 2.916710
vt 0.484650 2.849720
vt 0.486550 2.885690
vt 0.263760 2.809180
vt 0.311320 2.797390
vt 0.324510 2.956460
vt 0.476530 2.758640
vt 0.367960 2.789740
vt 0.420120 2.759480
vt 0.487850 2.920290
vt 0.376370 2.955200
vt 0.430660 2.955290
vt 0.269810 2.773930
vt 0.364450 2.761700
vt 0.487780 2.958660
vt 0.380180 2.985920
vt 0.313590 2.765030
vt 0.433020 2.986210
vt 0.301410 3.839360
vt 0.307550 3.909870
vt 0.250000 3.844560
vt 0.355290 3.901650
vt 0.250000 3.772130
vt 0.346740 3.828780
vt 0.296310 3.770440
vt 0.250000 3.914060
vt 0.359550 3.951050
vt 0.308810 3.974690
vt 0.198594 3.839360
vt 0.203690 3.770440
vt 0.338330 3.767460
vt 0.250000 3.982510
vt 0.192447 3.909870
vt 0.191190 3.974690
vt 0.153258 3.828780
vt 0.161675 3.767460
vt 0.140451 3.951050
vt 0.144709 3.901650
s 1
g Head
f 1/1/1 2/2/2 3/3/3
f 1/1/1 4/4/4 2/2/2
f 1/1/1 3/3/3 5/5/5
f 1/1/1 6/6/6 4/4/4
f 1/1/1 5/5/5 7/7/7
f 1/1/1 8/8/8 6/6/6
f 1/1/1 7/7/7 8/8/8
f 2/2/2 9/9/9 3/3/3
f 2/2/2 4/4/4 10/10/10
f 2/2/2 11/11/11 9/9/9
f 2/2/2 10/10/10 11/11/11
f 5/5/5 12/12/12 7/7/7
f 5/5/5 3/3/3 13/13/13
f 5/5/5 14/14/14 12/12/12
f 5/5/5 13/13/13 14/14/14
f 3/3/3 9/9/9 13/13/13
f 6/6/6 8/8/8 15/15/15
f 6/6/6 16/16/16 4/4/4
f 6/6/6 15/15/15 17/17/17
f 6/6/6 17/17/17 16/16/16
f 10/10/10 4/4/4 18/18/18
f 4/4/4 16/16/16 18/18/18
f 7/7/7 12/12/12 19/19/19
f 7/7/7 20/20/20 8/8/8
f 7/7/7 19/19/19 20/20/20
f 14/14/14 13/13/13 21/21/21
f 14/14/14 22/22/22 12/12/12
f 14/14/14 21/21/21 23/23/23
f 14/14/14 23/23/23 22/22/22
f 15/15/15 24/24/24 17/17/17
f 15/15/15 8/8/8 25/25/25
f 15/15/15 26/26/26 24/24/24
f 15/15/15 25/25/25 26/26/26
f 25/25/25 8/8/8 20/20/20
f 16/16/16 27/27/27 18/18/18
f 16/16/16 17/17/17 28/28/28
f 16/16/16 28/28/28 27/27/27
f 19/19/19 12/12/12 29/29/29
f 12/12/12 22/22/22 29/29/29
f 21/21/21 30/30/30 23/23/23
f 24/24/24 31/31/31 17/17/17
f 17/17/17 31/31/31 28/28/28
f 22/22/22 32/32/32 29/29/29
f 22/22/22 23/23/23 33/33/33
f 22/22/22 33/33/33 32/32/32
f 23/23/23 30/30/30 33/33/33
f 32/32/32 33/33/33 34/34/34
f 30/30/30 35/35/35 33/33/33
f 33/33/33 35/35/35 34/34/34
f 36/36/36 37/37/37 38/38/38
f 36/36/36 39/39/39 37/37/37
f 36/36/36 38/38/38 40/40/40
f 36/36/36 41/41/41 39/39/39
f 36/36/36 40/40/40 42/42/42
f 36/36/36 43/43/43 41/41/41
f 36/36/36 42/42/42 43/43/43
f 37/37/37 44/44/44 38/38/38
f 37/37/37 39/39/39 45/45/45
f 37/37/37 46/46/46 44/44/44
f 37/37/37 45/45/45 46/46/46
f 40/40/40 47/47/47 42/42/42
f 40/40/40 38/38/38 48/48/48
f 40/40/40 49/49/49 47/47/47
f 40/40/40 48/48/48 49/49/49
f 48/48/48 38/38/38 44/44/44
f 41/41/41 43/43/43 50/50/50
f 41/41/41 51/51/51 39/39/39
f 41/41/41 50/50/50 52/52/52
f 41/41/41 52/52/52 51/51/51
f 45/45/45 53/53/53 46/46/46
f 45/45/45 39/39/39 54/54/54
f 45/45/45 55/55/55 53/53/53
f 45/45/45 54/54/54 55/55/55
f 54/54/54 39/39/39 51/51/51
f 42/42/42 47/47/47 56/56/56
f 42/42/42 57/57/57 43/43/43
f 42/42/42 56/56/56 57/57/57
f 44/44/44 46/46/46 58/58/58
f 50/50/50 59/59/59 52/52/52
f 50/50/50 43/43/43 60/60/60
f 50/50/50 61/61/61 59/59/59
f 50/50/50 60/60/60 61/61/61
f 43/43/43 57/57/57 60/60/60
f 53/53/53 55/55/55 62/62/62
f 53/53/53 63/63/63 46/46/46
f 53/53/53 62/62/62 64/64/64
f 53/53/53 64/64/64 63/63/63
f 46/46/46 63/63/63 58/58/58
f 56/56/56 65/65/65 57/57/57
f 61/61/61 60/60/60 66/66/66
f 62/62/62 67/67/67 64/64/64
f 63/63/63 68/68/68 58/58/58
f 63/63/63 64/64/64 68/68/68
f 65/65/65 69/69/69 57/57/57
f 69/69/69 60/60/60 57/57/57
f 69/69/69 66/66/66 60/60/60
f 67/67/67 70/70/70 64/64/64
f 64/64/64 70/70/70 68/68/68
f 81/71/71 82/72/72 83/73/73
f 81/71/71 76/74/74 82/72/72
f 81/71/71 83/73/73 75/75/75
f 81/71/71 77/76/76 76/74/74
f 81/71/71 75/75/75 79/77/77
f 81/71/71 79/77/77 77/76/76
f 82/72/72 84/78/78 83/73/73
f 82/72/72 76/74/74 69/79/69
f 82/72/72 65/80/65 84/78/78
f 82/72/72 69/79/69 65/80/65
f 75/75/75 83/73/73 85/81/79
f 75/75/75 85/81/79 74/82/80
f 79/77/77 78/83/81 77/76/76
f 84/78/78 65/80/65 80/84/82
f 84/78/78 86/85/83 83/73/73
f 84/78/78 80/84/82 27/86/27
f 84/78/78 27/86/27 86/85/83
f 83/73/73 86/85/83 85/81/79
f 74/82/80 85/81/79 72/87/84
f 74/82/80 72/87/84 71/88/85
f 27/86/27 28/89/28 86/85/83
f 85/81/79 73/90/86 72/87/84
f 85/81/79 86/85/83 73/90/86
f 73/90/86 86/85/83 28/89/28
